<?xml version="1.0" encoding="UTF-8"?>
<svg version="1.1" xmlns="http://www.w3.org/2000/svg" width="1024" height="1024">
<path d="M0 0 C1.1456543 0.01087646 1.1456543 0.01087646 2.31445312 0.02197266 C29.44366141 0.41009664 57.44569093 11.88484051 78.73828125 28.30859375 C81.09066945 30.06780634 83.39320437 31.64202104 86 33 C86.66 32.67 87.32 32.34 88 32 C88.33 33.65 88.66 35.3 89 37 C89.66 37 90.32 37 91 37 C91 37.66 91 38.32 91 39 C91.66 39 92.32 39 93 39 C94.66666667 40.66666667 96.33333333 42.33333333 98 44 C99.60875 44.99 99.60875 44.99 101.25 46 C104 48 104 48 104.44921875 50.3046875 C105.12762919 53.62456838 106.5270612 55.43575358 108.5625 58.125 C112 62.67605634 112 62.67605634 112 66 C103.33064765 67.57624588 94.10991635 68.55577902 86.0234375 64.46875 C82.89330299 62.19668325 80.85210974 59.32904842 78.640625 56.1875 C77.08718219 54.11624292 75.58911287 52.65348581 73.5625 51.0625 C72.716875 50.381875 71.87125 49.70125 71 49 C71 48.34 71 47.68 71 47 C70.01 47 69.02 47 68 47 C66.83459977 45.83459977 65.67318156 44.66496802 64.53125 43.4765625 C42.48223388 22.21501124 7.33677096 19.44259663 -21.43994141 19.60888672 C-24.76115531 19.6250543 -28.08116496 19.60888889 -31.40234375 19.58984375 C-46.74129291 19.57394935 -61.47737354 20.54784233 -76.0625 25.6875 C-76.80016602 25.94241211 -77.53783203 26.19732422 -78.29785156 26.45996094 C-96.0839874 32.82464486 -111.5246456 42.77046467 -125 56 C-125.80824219 56.78375 -126.61648438 57.5675 -127.44921875 58.375 C-144.55448383 75.99046922 -153.22746503 98.35098088 -158 122 C-158.19722656 122.96035156 -158.39445312 123.92070313 -158.59765625 124.91015625 C-159.221014 129.69730171 -159.38201525 134.49076625 -159.5625 139.3125 C-159.6035083 140.39958252 -159.6445166 141.48666504 -159.68676758 142.60668945 C-159.9650357 150.63267943 -160.13452996 158.6568855 -160.1875 166.6875 C-160.20047119 167.73139893 -160.21344238 168.77529785 -160.22680664 169.85083008 C-160.28144921 178.35059862 -160.28144921 178.35059862 -156.5625 185.8125 C-153.76494836 187.93863925 -151.09610629 188.13585706 -147.7121582 188.20532227 C-146.85149246 188.22526749 -145.99082672 188.24521271 -145.1040802 188.26576233 C-143.71644722 188.29083107 -143.71644722 188.29083107 -142.30078125 188.31640625 C-141.35059616 188.33718735 -140.40041107 188.35796844 -139.4214325 188.37937927 C-136.38519544 188.44478052 -133.34887169 188.50371604 -130.3125 188.5625 C-128.25454831 188.60569417 -126.19660541 188.64930876 -124.13867188 188.69335938 C-119.09253684 188.80045231 -114.04631457 188.90174646 -109 189 C-109.00444122 188.22183426 -109.00888245 187.44366852 -109.01345825 186.641922 C-109.05357093 179.30013088 -109.08400265 171.95839308 -109.10362434 164.61652088 C-109.11405124 160.8422 -109.12819037 157.06796984 -109.15087891 153.29370117 C-109.17264644 149.64974262 -109.18457686 146.00587121 -109.18975449 142.36185265 C-109.19344323 140.97321896 -109.20064646 139.58458991 -109.21146011 138.19599342 C-109.22602615 136.24765316 -109.22681736 134.29922478 -109.22705078 132.35083008 C-109.231492 131.2427449 -109.23593323 130.13465973 -109.24050903 128.99299622 C-108.89970529 124.75189016 -108.09361663 121.96495585 -104.875 119.125 C-101.11975902 117.65555788 -97.77537669 117.43881043 -94 119 C-90.32561568 122.778938 -89.49533789 125.21592294 -89.45410156 130.44262695 C-89.43438293 131.72357742 -89.41466431 133.00452789 -89.39434814 134.32429504 C-89.39268524 135.71229 -89.39145424 137.10028554 -89.390625 138.48828125 C-89.37563641 139.91604991 -89.35890782 141.34380128 -89.34051514 142.77153015 C-89.29690467 146.51812556 -89.27685687 150.26448711 -89.26177979 154.0112915 C-89.24218567 157.83904818 -89.20021836 161.66655314 -89.16015625 165.49414062 C-89.08492269 172.99602598 -89.03459016 180.49780545 -89 188 C-88.02030243 187.9955336 -87.04060486 187.9910672 -86.03121948 187.98646545 C-57.0106412 187.85959917 -28.01342487 188.37527239 1 189 C1.30417847 189.8194812 1.30417847 189.8194812 1.61450195 190.65551758 C1.88222412 191.37376709 2.14994629 192.0920166 2.42578125 192.83203125 C2.69044189 193.54335205 2.95510254 194.25467285 3.2277832 194.98754883 C3.83587184 196.57227049 4.5014785 198.13492503 5.1875 199.6875 C6.09317185 202.26518142 6.05846856 204.28795829 6 207 C-15.2274648 207.09352111 -36.45489553 207.16401734 -57.68252468 207.20724869 C-67.53931511 207.22785702 -77.39597738 207.25594455 -87.25268555 207.30175781 C-95.84572422 207.34167853 -104.43867007 207.36744538 -113.0317989 207.37635398 C-117.58008225 207.38155987 -122.12810006 207.39375947 -126.67629814 207.42292023 C-130.96169522 207.45017212 -135.24671864 207.45842535 -139.53219414 207.45243073 C-141.10067783 207.45352661 -142.66917468 207.46142225 -144.23758316 207.4768219 C-155.83304612 207.58504071 -164.49585194 206.30637718 -173 198 C-179.27693347 189.9794739 -179.30854098 182.31586742 -179.30078125 172.515625 C-179.30506638 171.30541687 -179.3093515 170.09520874 -179.31376648 168.84832764 C-179.31950018 166.28642398 -179.32001713 163.72450405 -179.31567383 161.16259766 C-179.31254439 157.30471734 -179.3358797 153.44762767 -179.36132812 149.58984375 C-179.46347303 110.19993794 -169.19032651 75.58287444 -141.98046875 46.171875 C-139.8562244 43.8981895 -139.8562244 43.8981895 -137.5625 40.875 C-120.46629418 21.69389103 -95.87827545 10.3957735 -71.5 4.1875 C-70.68789063 3.98044434 -69.87578125 3.77338867 -69.0390625 3.56005859 C-59.79489276 1.31152796 -50.60928068 0.78804836 -41.125 0.4375 C-40.00311279 0.3957666 -38.88122559 0.3540332 -37.7253418 0.31103516 C-25.14881462 -0.11658946 -12.58175938 -0.18299958 0 0 Z " fill="#F3F3F3" transform="translate(512,512)"/>
<path d="M0 0 C1.5159375 0.9590625 1.5159375 0.9590625 3.0625 1.9375 C17.78061091 12.27149277 28.86288596 23.94628991 37 40 C37.66708984 41.31484375 37.66708984 41.31484375 38.34765625 42.65625 C49.87403947 66.62548727 51.70225142 95.16796815 42.94824219 120.31665039 C33.17628097 146.75676753 14.37895237 167.76443459 -11 180 C-36.29562412 191.4475149 -65.75352059 192.78506094 -91.98046875 183.27734375 C-103.53949948 178.38755973 -113.38293192 171.9953664 -123 164 C-123.87269531 163.30390625 -124.74539063 162.6078125 -125.64453125 161.890625 C-137.12217663 152.27470793 -145.04263688 139.59584514 -151 126 C-151.39832031 125.10152344 -151.79664063 124.20304688 -152.20703125 123.27734375 C-161.39043276 100.47361642 -161.09086757 71.25597225 -151.60595703 48.60058594 C-146.53195479 37.17877337 -140.74138221 27.00122689 -131.96875 18.0390625 C-129.95240268 16.15442045 -129.95240268 16.15442045 -129 14 C-128.34 14 -127.68 14 -127 14 C-127 13.34 -127 12.68 -127 12 C-110.81446636 -6.09259047 -83.8178581 -14.29226503 -60.49658203 -15.88183594 C-38.69567487 -16.91368016 -18.38313753 -11.85795177 0 0 Z M-118.47900391 31.58789062 C-130.7773959 45.66054799 -138.40713563 63.25066438 -139 82 C-139.0515625 83.23621094 -139.103125 84.47242188 -139.15625 85.74609375 C-139.82632217 108.42927763 -131.5947068 128.1142465 -116.2890625 144.6484375 C-99.96126881 161.42204125 -79.22064244 170.78144039 -55.8125 171.1875 C-31.5861788 170.92417042 -10.66755815 161.4258315 6.6875 144.5625 C20.3151522 130.46330275 29.10627766 111.77360688 30 92 C30.0515625 91.28457031 30.103125 90.56914062 30.15625 89.83203125 C31.07931805 66.87071348 21.09075575 45.7445372 6 29 C3.4681867 26.4681867 0.81963072 24.20443856 -2 22 C-2.83273437 21.34257812 -3.66546875 20.68515625 -4.5234375 20.0078125 C-17.21020699 10.37459211 -31.88250151 3.67390238 -48 3 C-49.29550781 2.92265625 -49.29550781 2.92265625 -50.6171875 2.84375 C-76.49691488 2.00213285 -100.91049113 12.72595482 -118.47900391 31.58789062 Z " fill="#F0F0EF" transform="translate(545,300)"/>
<path d="M0 0 C0.95519531 -0.00773438 1.91039062 -0.01546875 2.89453125 -0.0234375 C25.74780949 0.0384117 43.93689015 9.51230762 60.32421875 24.90234375 C62.5 27.25 62.5 27.25 62.5 29.25 C63.16 29.25 63.82 29.25 64.5 29.25 C79.88927227 45.94824485 84.32890128 68.99815988 83.63183594 90.91699219 C82.37173256 113.21615492 70.29204677 132.96920122 54.390625 147.89453125 C39.93207779 160.78040694 19.40374981 167.68395227 0.1875 167.5625 C-1.18716431 167.55621582 -1.18716431 167.55621582 -2.58959961 167.54980469 C-9.88416254 167.4289252 -16.52076745 166.43276669 -23.5 164.25 C-25.01787109 163.81494141 -25.01787109 163.81494141 -26.56640625 163.37109375 C-47.39144779 157.01453573 -64.05735481 142.16004822 -74.4621582 123.21972656 C-77.35843844 117.74947839 -79.84423616 112.2296238 -81.5 106.25 C-81.76055176 105.34024414 -81.76055176 105.34024414 -82.02636719 104.41210938 C-87.70445069 82.36778518 -83.4661062 59.4616732 -72.52148438 39.96972656 C-70.20752758 36.07404978 -67.47552638 32.65158327 -64.5 29.25 C-63.99339844 28.60160156 -63.48679687 27.95320312 -62.96484375 27.28515625 C-54.64024238 16.95610541 -43.73401582 10.05736131 -31.5 5.25 C-30.69820312 4.93417969 -29.89640625 4.61835937 -29.0703125 4.29296875 C-19.6144376 0.87741251 -9.99371543 -0.08092077 0 0 Z M-51.6875 42.90234375 C-62.91852226 57.44942215 -67.12758781 74.01846012 -65.5 92.25 C-63.14548796 110.00167051 -53.92381931 124.61918671 -40.1875 136 C-25.54311267 146.77989623 -7.94905985 150.83486358 10.0625 148.6875 C28.27425799 145.38240318 43.41708671 133.72466692 54.5 119.25 C64.77388279 103.696483 66.90988517 86.53819493 63.83984375 68.3359375 C62.94521519 65.15245404 61.86196246 62.26172055 60.5 59.25 C60.025625 58.17878906 59.55125 57.10757813 59.0625 56.00390625 C56.04453346 49.84464281 52.44910012 44.62901796 47.875 39.5625 C47.41988037 39.05710693 46.96476074 38.55171387 46.49584961 38.03100586 C43.7380482 35.12929309 41.32911865 33.43191207 37.5 32.25 C37.5 31.59 37.5 30.93 37.5 30.25 C8.4754355 9.68460177 -29.04664366 16.29020818 -51.6875 42.90234375 Z " fill="#F6F6F5" transform="translate(607.5,590.75)"/>
<path d="M0 0 C1.16015625 0.08314453 1.16015625 0.08314453 2.34375 0.16796875 C5.31120162 1.05497875 5.95583139 2.14024633 7.5 4.8125 C7.84057617 8.02050781 7.84057617 8.02050781 7.79296875 11.765625 C7.78872391 12.42584656 7.78447906 13.08606812 7.78010559 13.76629639 C7.76337435 15.86545391 7.72573551 17.96363496 7.6875 20.0625 C7.67244584 21.48956942 7.65875871 22.91665396 7.64648438 24.34375 C7.61349001 27.83364817 7.56174743 31.3229787 7.5 34.8125 C8.16 34.4825 8.82 34.1525 9.5 33.8125 C13.43233643 33.56951109 17.3734991 33.62729679 21.3125 33.625 C22.9531543 33.60663086 22.9531543 33.60663086 24.62695312 33.58789062 C26.2134668 33.58499023 26.2134668 33.58499023 27.83203125 33.58203125 C28.79858643 33.57792236 29.7651416 33.57381348 30.76098633 33.56958008 C34.58182605 33.90844589 37.44521955 34.86683477 40.3125 37.4375 C42.00173564 40.81597129 42.68423718 44.21964483 41.5 47.8125 C38.66512854 51.44030626 36.98435276 52.62362887 32.38208008 53.20922852 C28.61772022 53.30514718 24.88849271 53.24768156 21.125 53.125 C19.81660156 53.10244141 18.50820313 53.07988281 17.16015625 53.05664062 C13.93893113 52.99785914 10.7200568 52.91572731 7.5 52.8125 C7.51571045 53.67004883 7.5314209 54.52759766 7.54760742 55.41113281 C7.59882423 58.60170247 7.63639312 61.79206215 7.66479492 64.98291016 C7.67985422 66.36221218 7.70030613 67.74146653 7.72631836 69.12060547 C7.76282415 71.10623403 7.77814853 73.09221618 7.79296875 75.078125 C7.8086792 76.27211914 7.82438965 77.46611328 7.84057617 78.69628906 C7.47130289 82.07507338 6.87333218 83.42839953 4.5 85.8125 C2.37890625 86.4921875 2.37890625 86.4921875 0.0625 86.6875 C-1.08025391 86.80738281 -1.08025391 86.80738281 -2.24609375 86.9296875 C-4.89783957 86.7918151 -6.30903338 86.31035828 -8.5 84.8125 C-10.50039774 81.63244936 -10.78174736 79.03140502 -10.87890625 75.3125 C-10.91306641 74.260625 -10.94722656 73.20875 -10.98242188 72.125 C-11.00884766 71.031875 -11.03527344 69.93875 -11.0625 68.8125 C-11.12254621 66.64572599 -11.18620162 64.47904823 -11.25390625 62.3125 C-11.27783447 61.3534375 -11.3017627 60.394375 -11.32641602 59.40625 C-11.48253963 57.07339871 -11.84537919 55.04975318 -12.5 52.8125 C-13.1290625 52.956875 -13.758125 53.10125 -14.40625 53.25 C-23.98311995 55.32691156 -32.38611534 55.80440101 -41.4375 51.375 C-43.5 49.8125 -43.5 49.8125 -44.5 46.8125 C-45.19195666 39.66228113 -45.19195666 39.66228113 -42.38061523 36.2097168 C-38.88799807 33.30319863 -37.36438006 33.22198904 -32.88671875 33.32421875 C-31.63955078 33.34033203 -30.39238281 33.35644531 -29.10742188 33.37304688 C-27.81384766 33.41494141 -26.52027344 33.45683594 -25.1875 33.5 C-23.87458984 33.52255859 -22.56167969 33.54511719 -21.20898438 33.56835938 C-17.9714987 33.62722275 -14.73633 33.70941196 -11.5 33.8125 C-11.48541748 32.91942139 -11.47083496 32.02634277 -11.45581055 31.10620117 C-11.39472923 27.79032722 -11.32057522 24.47528101 -11.23754883 21.15991211 C-11.20430999 19.72545372 -11.17627465 18.29086487 -11.15356445 16.85620117 C-11.11999729 14.79289193 -11.06768587 12.73077697 -11.01171875 10.66796875 C-10.98553467 9.42684326 -10.95935059 8.18571777 -10.93237305 6.90698242 C-10.5 3.8125 -10.5 3.8125 -9.15551758 1.9465332 C-6.08516427 -0.1566656 -3.58273416 -0.31647485 0 0 Z " fill="#FAFBF9" transform="translate(608.5,631.1875)"/>
<path d="M0 0 C1.1456543 0.01087646 1.1456543 0.01087646 2.31445312 0.02197266 C29.44366141 0.41009664 57.44569093 11.88484051 78.73828125 28.30859375 C81.09066945 30.06780634 83.39320437 31.64202104 86 33 C86.66 32.67 87.32 32.34 88 32 C88.33 33.65 88.66 35.3 89 37 C89.66 37 90.32 37 91 37 C91 37.66 91 38.32 91 39 C91.66 39 92.32 39 93 39 C94.66666667 40.66666667 96.33333333 42.33333333 98 44 C99.60875 44.99 99.60875 44.99 101.25 46 C104 48 104 48 104.44921875 50.3046875 C105.12762919 53.62456838 106.5270612 55.43575358 108.5625 58.125 C112 62.67605634 112 62.67605634 112 66 C103.33064765 67.57624588 94.10991635 68.55577902 86.0234375 64.46875 C82.89330299 62.19668325 80.85210974 59.32904842 78.640625 56.1875 C77.08718219 54.11624292 75.58911287 52.65348581 73.5625 51.0625 C72.716875 50.381875 71.87125 49.70125 71 49 C71 48.34 71 47.68 71 47 C70.01 47 69.02 47 68 47 C66.83459977 45.83459977 65.67318156 44.66496802 64.53125 43.4765625 C53.65758302 32.99124077 36.38957185 26.69427069 22 23 C31.62811344 19.91295915 45.48194771 28.68945716 54 33 C65.83882439 39.517551 82.83850146 49.67700291 89 62 C91.03179594 62.46853709 91.03179594 62.46853709 93.47265625 62.6328125 C94.37177734 62.71660156 95.27089844 62.80039062 96.19726562 62.88671875 C97.61555664 63.00466797 97.61555664 63.00466797 99.0625 63.125 C100.01189453 63.21136719 100.96128906 63.29773438 101.93945312 63.38671875 C104.29235092 63.59954368 106.64568595 63.80357031 109 64 C104.62475797 57.00689524 99.66714191 50.98935399 94 45 C93.31164062 44.2471875 92.62328125 43.494375 91.9140625 42.71875 C78.90308843 28.98225693 61.72022652 19.651159 44.5 12.25 C43.71431641 11.89736084 42.92863281 11.54472168 42.11914062 11.18139648 C23.22659789 3.39534566 3.25357506 2.22557012 -16.91943359 2.45800781 C-20.76061071 2.50011632 -24.60003492 2.49902703 -28.44140625 2.4921875 C-46.14951768 2.53636459 -63.91921202 3.12440941 -80.75 9.1875 C-81.6150415 9.48865723 -82.48008301 9.78981445 -83.37133789 10.10009766 C-117.53509507 22.36465656 -147.12352393 47.08730527 -163 80 C-170.14198225 95.64070893 -175.9887082 112.15510298 -176.19287109 129.52685547 C-176.20893402 130.77860565 -176.22499695 132.03035583 -176.24154663 133.32003784 C-176.25303428 134.6690807 -176.26364279 136.01813129 -176.2734375 137.3671875 C-176.27876118 138.05561863 -176.28408485 138.74404976 -176.28956985 139.45334244 C-176.31616952 143.09469736 -176.33558923 146.73601951 -176.35009766 150.37744141 C-176.36344249 153.37254329 -176.39132267 156.36696481 -176.43212891 159.36181641 C-176.48168605 163.00098426 -176.50624471 166.63953527 -176.51332474 170.27902603 C-176.51999346 171.65603526 -176.53510007 173.03303306 -176.55921555 174.40984726 C-176.71485327 183.82943795 -175.91774766 190.84274582 -169.24423218 197.84127808 C-163.62827739 203.16065914 -157.68735056 205.36893968 -150.0080719 205.39872742 C-149.00679722 205.40869766 -149.00679722 205.40869766 -147.98529476 205.41886932 C-145.76811379 205.43739192 -143.55147758 205.43490145 -141.33422852 205.43237305 C-139.7371495 205.44139681 -138.14007741 205.45172554 -136.54301453 205.46325684 C-132.2212344 205.49078087 -127.89958586 205.50010509 -123.57772946 205.50611091 C-119.05599352 205.51550655 -114.5343554 205.54171091 -110.01268005 205.56611633 C-101.45643492 205.60975227 -92.9002088 205.63831708 -84.34388632 205.66143972 C-74.60020123 205.68850696 -64.8566147 205.73241754 -55.11300004 205.77772844 C-35.0753864 205.87053309 -15.03774327 205.94223298 5 206 C4.67 204.35 4.34 202.7 4 201 C4.66 201.33 5.32 201.66 6 202 C6 203.65 6 205.3 6 207 C-15.2274648 207.09352111 -36.45489553 207.16401734 -57.68252468 207.20724869 C-67.53931511 207.22785702 -77.39597738 207.25594455 -87.25268555 207.30175781 C-95.84572422 207.34167853 -104.43867007 207.36744538 -113.0317989 207.37635398 C-117.58008225 207.38155987 -122.12810006 207.39375947 -126.67629814 207.42292023 C-130.96169522 207.45017212 -135.24671864 207.45842535 -139.53219414 207.45243073 C-141.10067783 207.45352661 -142.66917468 207.46142225 -144.23758316 207.4768219 C-155.83304612 207.58504071 -164.49585194 206.30637718 -173 198 C-179.27693347 189.9794739 -179.30854098 182.31586742 -179.30078125 172.515625 C-179.30506638 171.30541687 -179.3093515 170.09520874 -179.31376648 168.84832764 C-179.31950018 166.28642398 -179.32001713 163.72450405 -179.31567383 161.16259766 C-179.31254439 157.30471734 -179.3358797 153.44762767 -179.36132812 149.58984375 C-179.46347303 110.19993794 -169.19032651 75.58287444 -141.98046875 46.171875 C-139.8562244 43.8981895 -139.8562244 43.8981895 -137.5625 40.875 C-120.46629418 21.69389103 -95.87827545 10.3957735 -71.5 4.1875 C-70.68789063 3.98044434 -69.87578125 3.77338867 -69.0390625 3.56005859 C-59.79489276 1.31152796 -50.60928068 0.78804836 -41.125 0.4375 C-40.00311279 0.3957666 -38.88122559 0.3540332 -37.7253418 0.31103516 C-25.14881462 -0.11658946 -12.58175938 -0.18299958 0 0 Z " fill="#111212" transform="translate(512,512)"/>
<path d="M0 0 C1.5159375 0.9590625 1.5159375 0.9590625 3.0625 1.9375 C17.83766392 12.31155126 28.73239514 23.96283877 37 40 C37.61101562 41.05960937 37.61101562 41.05960937 38.234375 42.140625 C39 44 39 44 38 47 C37.443125 45.96101563 36.88625 44.92203125 36.3125 43.8515625 C31.84311748 35.62987407 27.33004931 27.95856485 21 21 C20.12859375 20.03578125 19.2571875 19.0715625 18.359375 18.078125 C2.38377657 0.98845671 -21.08152175 -11.50005396 -44.65576172 -13.19042969 C-47.37796404 -13.26691558 -50.08939693 -13.27782593 -52.8125 -13.25 C-53.77736328 -13.24323242 -54.74222656 -13.23646484 -55.73632812 -13.22949219 C-62.97350375 -13.12499301 -69.92512305 -12.6091877 -77 -11 C-78.09957031 -10.75507813 -79.19914062 -10.51015625 -80.33203125 -10.2578125 C-93.10642882 -7.01761738 -105.48489539 -0.97052413 -116 7 C-117.39605469 8.04027344 -117.39605469 8.04027344 -118.8203125 9.1015625 C-138.03181275 24.18578392 -152.03678272 47.61689921 -155 72 C-155.26272222 76.67103638 -155.2803069 81.32263586 -155.25 86 C-155.25773437 87.19367188 -155.26546875 88.38734375 -155.2734375 89.6171875 C-155.25027016 100.20466277 -153.70746935 109.85927647 -150.3125 119.875 C-150.05194824 120.64457031 -149.79139648 121.41414062 -149.52294922 122.20703125 C-145.56565564 133.48543523 -139.83408477 142.95828951 -132 152 C-131.38898438 152.7321875 -130.77796875 153.464375 -130.1484375 154.21875 C-126.71499936 158.27232454 -123.18801518 161.73130523 -119 165 C-124.05027166 165 -127.29576661 160.68270299 -130.796875 157.32421875 C-149.45595585 138.52547412 -158.207425 112.58154475 -158.375 86.5 C-158.16953097 60.97990803 -150.08315566 36.54482878 -131.96875 18.0390625 C-129.95240268 16.15442045 -129.95240268 16.15442045 -129 14 C-128.34 14 -127.68 14 -127 14 C-127 13.34 -127 12.68 -127 12 C-110.81446636 -6.09259047 -83.8178581 -14.29226503 -60.49658203 -15.88183594 C-38.69567487 -16.91368016 -18.38313753 -11.85795177 0 0 Z " fill="#101111" transform="translate(545,300)"/>
<path d="M0 0 C0 4.03302122 -1.96153077 6.39957583 -4.0625 9.6875 C-12.90812814 24.09393541 -17.65985951 38.4488282 -21 55 C-21.19722656 55.96035156 -21.39445312 56.92070313 -21.59765625 57.91015625 C-22.221014 62.69730171 -22.38201525 67.49076625 -22.5625 72.3125 C-22.6035083 73.39958252 -22.6445166 74.48666504 -22.68676758 75.60668945 C-22.9650357 83.63267943 -23.13452996 91.6568855 -23.1875 99.6875 C-23.20047119 100.73139893 -23.21344238 101.77529785 -23.22680664 102.85083008 C-23.28144921 111.35059862 -23.28144921 111.35059862 -19.5625 118.8125 C-16.76494836 120.93863925 -14.09610629 121.13585706 -10.7121582 121.20532227 C-9.85149246 121.22526749 -8.99082672 121.24521271 -8.1040802 121.26576233 C-7.17899155 121.28247482 -6.25390289 121.29918732 -5.30078125 121.31640625 C-4.35059616 121.33718735 -3.40041107 121.35796844 -2.4214325 121.37937927 C0.61480456 121.44478052 3.65112831 121.50371604 6.6875 121.5625 C8.74545169 121.60569417 10.80339459 121.64930876 12.86132812 121.69335938 C17.90746316 121.80045231 22.95368543 121.90174646 28 122 C27.99555878 121.22183426 27.99111755 120.44366852 27.98654175 119.641922 C27.94642907 112.30013088 27.91599735 104.95839308 27.89637566 97.61652088 C27.88594876 93.8422 27.87180963 90.06796984 27.84912109 86.29370117 C27.82735356 82.64974262 27.81542314 79.00587121 27.81024551 75.36185265 C27.80655677 73.97321896 27.79935354 72.58458991 27.78853989 71.19599342 C27.77397385 69.24765316 27.77318264 67.29922478 27.77294922 65.35083008 C27.768508 64.2427449 27.76406677 63.13465973 27.75949097 61.99299622 C28.10029471 57.75189016 28.90638337 54.96495585 32.125 52.125 C35.88024098 50.65555788 39.22462331 50.43881043 43 52 C46.67438432 55.778938 47.50466211 58.21592294 47.54589844 63.44262695 C47.56561707 64.72357742 47.58533569 66.00452789 47.60565186 67.32429504 C47.60731476 68.71229 47.60854576 70.10028554 47.609375 71.48828125 C47.62436359 72.91604991 47.64109218 74.34380128 47.65948486 75.77153015 C47.70309533 79.51812556 47.72314313 83.26448711 47.73822021 87.0112915 C47.75781433 90.83904818 47.79978164 94.66655314 47.83984375 98.49414062 C47.91507731 105.99602598 47.96540984 113.49780545 48 121 C48.97969757 120.9955336 49.95939514 120.9910672 50.96878052 120.98646545 C79.9893588 120.85959917 108.98657513 121.37527239 138 122 C138.5345256 123.24420647 139.05208611 124.49570936 139.5625 125.75 C139.99755859 126.79414062 139.99755859 126.79414062 140.44140625 127.859375 C141.07831803 130.30012784 140.80248831 131.6403655 140 134 C139.49632243 132.54293274 138.99717444 131.08429904 138.5 129.625 C138.08234375 128.40683594 138.08234375 128.40683594 137.65625 127.1640625 C137 125 137 125 137 123 C106.97 123 76.94 123 46 123 C45.8125 91.3125 45.8125 91.3125 45.79223633 81.32543945 C45.76579257 78.71303283 45.73751595 76.10064384 45.70703125 73.48828125 C45.7093425 72.81298874 45.71165375 72.13769623 45.71403503 71.44194031 C45.71895913 69.4420924 45.68975217 67.44225094 45.65942383 65.44262695 C45.64943108 63.75385185 45.64943108 63.75385185 45.63923645 62.03096008 C44.79722722 58.03854638 43.14239969 56.52020314 40 54 C36.8445173 53.49512277 35.02966777 53.29873378 32.34733582 55.12556458 C30.35924994 57.89142187 30.5993539 60.10887428 30.56762695 63.4909668 C30.5574353 64.1448941 30.54724365 64.79882141 30.53674316 65.4725647 C30.50657663 67.63153611 30.49734219 69.79006414 30.48828125 71.94921875 C30.47143717 73.44710265 30.45328729 74.94497239 30.43388367 76.44282532 C30.38634763 80.38338802 30.35656186 84.32389332 30.33044434 88.26464844 C30.3006568 92.28657367 30.25412034 96.30830104 30.20898438 100.33007812 C30.12291037 108.21995496 30.05558359 116.10984974 30 124 C23.71962384 124.10175694 17.43946176 124.17161462 11.15844727 124.21972656 C9.02360082 124.23979182 6.888809 124.26705058 4.75415039 124.30175781 C1.67841075 124.35049943 -1.39659969 124.37302006 -4.47265625 124.390625 C-5.42084732 124.41127014 -6.36903839 124.43191528 -7.34596252 124.45318604 C-13.43886795 124.45523046 -17.09013387 123.70821705 -22 120 C-26.21299732 115.47922102 -25.46764005 109.59327027 -25.46875 103.76171875 C-25.47636353 102.64932327 -25.48397705 101.5369278 -25.49182129 100.39082336 C-25.50263012 98.02627802 -25.50547224 95.66168491 -25.50097656 93.29711914 C-25.50002112 89.76556402 -25.54127919 86.2363099 -25.5859375 82.70507812 C-25.74159611 53.08741933 -19.11759849 23.41905815 0 0 Z " fill="#242525" transform="translate(375,579)"/>
<path d="M0 0 C1.39766952 1.2033269 2.77214203 2.43400448 4.125 3.6875 C5.35283203 4.76257813 5.35283203 4.76257813 6.60546875 5.859375 C18.34027612 16.72427985 26.55341765 32.21902921 27.29296875 48.3515625 C27.39802806 69.65759043 21.94404448 86.59024588 6.78515625 102.078125 C1.10557905 107.4975004 -4.82062468 111.2951754 -11.875 114.6875 C-12.6484375 115.07808594 -13.421875 115.46867188 -14.21875 115.87109375 C-27.46521808 122.23779408 -44.92386124 122.99621496 -58.98046875 118.7890625 C-73.24162178 113.36174111 -84.11565833 105.46413576 -93.875 93.6875 C-93.38 92.6975 -93.38 92.6975 -92.875 91.6875 C-92.2459375 92.41195312 -91.616875 93.13640625 -90.96875 93.8828125 C-77.86627623 108.68229341 -63.37007799 116.69911 -43.4375 118.5 C-26.16018618 119.30932427 -10.85139901 114.07466021 2.0625 102.4375 C14.52315955 90.96696782 23.56832849 77.56289866 24.5078125 60.203125 C24.83135785 49.52174439 24.60190724 39.57123587 20.125 29.6875 C19.63902344 28.6046875 19.15304687 27.521875 18.65234375 26.40625 C14.4238937 17.84938654 8.67558793 9.01166826 0.3203125 4.0078125 C-0.76636719 3.35425781 -0.76636719 3.35425781 -1.875 2.6875 C-1.875 2.0275 -1.875 1.3675 -1.875 0.6875 C-2.74125 0.44 -3.6075 0.1925 -4.5 -0.0625 C-7.875 -1.3125 -7.875 -1.3125 -10.5625 -3.1875 C-22.95499477 -11.1374023 -38.86196093 -12.25892731 -53.02905273 -9.18530273 C-70.83220974 -4.82695994 -85.29545559 4.97419969 -95.0625 20.5625 C-103.55901997 35.40308822 -106.7622396 52.72035903 -102.3125 69.4375 C-102.02246094 70.36046875 -101.73242188 71.2834375 -101.43359375 72.234375 C-100.84352225 74.82573797 -101.00109349 76.21046697 -101.875 78.6875 C-102.35608275 77.27148286 -102.83478141 75.85465563 -103.3125 74.4375 C-103.57933594 73.64859375 -103.84617187 72.8596875 -104.12109375 72.046875 C-108.26480655 59.07898624 -108.02075624 40.86991621 -101.875 28.6875 C-101.37742187 27.61757813 -100.87984375 26.54765625 -100.3671875 25.4453125 C-96.55871581 17.77522765 -91.94612876 11.69472214 -85.875 5.6875 C-84.98941406 4.75164063 -84.98941406 4.75164063 -84.0859375 3.796875 C-62.17280475 -17.63358963 -23.99697317 -17.98707403 0 0 Z " fill="#171717" transform="translate(646.875,620.3125)"/>
<path d="M0 0 C0.95519531 -0.00773438 1.91039062 -0.01546875 2.89453125 -0.0234375 C25.74780949 0.0384117 43.93689015 9.51230762 60.32421875 24.90234375 C62.5 27.25 62.5 27.25 62.5 29.25 C63.16 29.25 63.82 29.25 64.5 29.25 C79.88927227 45.94824485 84.32890128 68.99815988 83.63183594 90.91699219 C83.01537998 101.82597952 79.25014353 112.4718494 74.5 122.25 C73.51 122.745 73.51 122.745 72.5 123.25 C72.9125 122.0125 73.325 120.775 73.75 119.5 C74.02070312 118.68273437 74.29140625 117.86546875 74.5703125 117.0234375 C75.21943882 115.08696823 75.88198745 113.15496932 76.5546875 111.2265625 C76.90789062 110.20304688 77.26109375 109.17953125 77.625 108.125 C77.95757813 107.17367187 78.29015625 106.22234375 78.6328125 105.2421875 C84.54100843 84.85625018 81.21840298 61.82157723 71.26293945 43.45849609 C60.16509254 24.11444034 43.12811071 11.17882155 21.64453125 5.0625 C2.18872634 0.03541004 -18.40675211 1.09076248 -36.5 10.25 C-37.48355469 10.74242187 -38.46710937 11.23484375 -39.48046875 11.7421875 C-59.12721669 22.3661728 -72.26638214 40.30197427 -78.9375 61.375 C-84.89789696 81.95574288 -82.05889621 103.38723131 -72.3203125 122.28125 C-72.04960938 122.9309375 -71.77890625 123.580625 -71.5 124.25 C-71.995 125.24 -71.995 125.24 -72.5 126.25 C-83.5957802 106.02201869 -87.44130681 83.83405538 -82 61 C-78.18640432 49.38403013 -72.56082597 38.465032 -64.5 29.25 C-63.99339844 28.60160156 -63.48679687 27.95320312 -62.96484375 27.28515625 C-54.64024238 16.95610541 -43.73401582 10.05736131 -31.5 5.25 C-30.69820312 4.93417969 -29.89640625 4.61835937 -29.0703125 4.29296875 C-19.6144376 0.87741251 -9.99371543 -0.08092077 0 0 Z " fill="#111212" transform="translate(607.5,590.75)"/>
<path d="M0 0 C1.16015625 0.08314453 1.16015625 0.08314453 2.34375 0.16796875 C5.31120162 1.05497875 5.95583139 2.14024633 7.5 4.8125 C7.84057617 8.02050781 7.84057617 8.02050781 7.79296875 11.765625 C7.78872391 12.42584656 7.78447906 13.08606812 7.78010559 13.76629639 C7.76337435 15.86545391 7.72573551 17.96363496 7.6875 20.0625 C7.67244584 21.48956942 7.65875871 22.91665396 7.64648438 24.34375 C7.61349001 27.83364817 7.56174743 31.3229787 7.5 34.8125 C8.16 34.4825 8.82 34.1525 9.5 33.8125 C13.43233643 33.56951109 17.3734991 33.62729679 21.3125 33.625 C22.9531543 33.60663086 22.9531543 33.60663086 24.62695312 33.58789062 C26.2134668 33.58499023 26.2134668 33.58499023 27.83203125 33.58203125 C28.79858643 33.57792236 29.7651416 33.57381348 30.76098633 33.56958008 C34.58182605 33.90844589 37.44521955 34.86683477 40.3125 37.4375 C42.00173564 40.81597129 42.68423718 44.21964483 41.5 47.8125 C38.66512854 51.44030626 36.98435276 52.62362887 32.38208008 53.20922852 C28.61772022 53.30514718 24.88849271 53.24768156 21.125 53.125 C19.81660156 53.10244141 18.50820313 53.07988281 17.16015625 53.05664062 C13.93893113 52.99785914 10.7200568 52.91572731 7.5 52.8125 C7.51571045 53.67004883 7.5314209 54.52759766 7.54760742 55.41113281 C7.59882423 58.60170247 7.63639312 61.79206215 7.66479492 64.98291016 C7.67985422 66.36221218 7.70030613 67.74146653 7.72631836 69.12060547 C7.76282415 71.10623403 7.77814853 73.09221618 7.79296875 75.078125 C7.8086792 76.27211914 7.82438965 77.46611328 7.84057617 78.69628906 C7.47130289 82.07507338 6.87333218 83.42839953 4.5 85.8125 C2.37890625 86.4921875 2.37890625 86.4921875 0.0625 86.6875 C-1.08025391 86.80738281 -1.08025391 86.80738281 -2.24609375 86.9296875 C-4.89783957 86.7918151 -6.30903338 86.31035828 -8.5 84.8125 C-10.50039774 81.63244936 -10.78174736 79.03140502 -10.87890625 75.3125 C-10.91306641 74.260625 -10.94722656 73.20875 -10.98242188 72.125 C-11.00884766 71.031875 -11.03527344 69.93875 -11.0625 68.8125 C-11.12254621 66.64572599 -11.18620162 64.47904823 -11.25390625 62.3125 C-11.27783447 61.3534375 -11.3017627 60.394375 -11.32641602 59.40625 C-11.48253963 57.07339871 -11.84537919 55.04975318 -12.5 52.8125 C-13.1290625 52.956875 -13.758125 53.10125 -14.40625 53.25 C-23.98311995 55.32691156 -32.38611534 55.80440101 -41.4375 51.375 C-43.5 49.8125 -43.5 49.8125 -44.5 46.8125 C-45.19195666 39.66228113 -45.19195666 39.66228113 -42.38061523 36.2097168 C-38.88799807 33.30319863 -37.36438006 33.22198904 -32.88671875 33.32421875 C-31.63955078 33.34033203 -30.39238281 33.35644531 -29.10742188 33.37304688 C-27.81384766 33.41494141 -26.52027344 33.45683594 -25.1875 33.5 C-23.87458984 33.52255859 -22.56167969 33.54511719 -21.20898438 33.56835938 C-17.9714987 33.62722275 -14.73633 33.70941196 -11.5 33.8125 C-11.48541748 32.91942139 -11.47083496 32.02634277 -11.45581055 31.10620117 C-11.39472923 27.79032722 -11.32057522 24.47528101 -11.23754883 21.15991211 C-11.20430999 19.72545372 -11.17627465 18.29086487 -11.15356445 16.85620117 C-11.11999729 14.79289193 -11.06768587 12.73077697 -11.01171875 10.66796875 C-10.98553467 9.42684326 -10.95935059 8.18571777 -10.93237305 6.90698242 C-10.5 3.8125 -10.5 3.8125 -9.15551758 1.9465332 C-6.08516427 -0.1566656 -3.58273416 -0.31647485 0 0 Z M-9.5 5.8125 C-10.05074834 9.09870131 -10.05074834 9.09870131 -9.890625 12.765625 C-9.88213531 13.75595734 -9.88213531 13.75595734 -9.87347412 14.76629639 C-9.8511623 16.86578263 -9.80098314 18.9635337 -9.75 21.0625 C-9.72992794 22.4895586 -9.71167839 23.91664408 -9.6953125 25.34375 C-9.65131693 28.83389293 -9.58232876 32.32302699 -9.5 35.8125 C-10.3878418 35.78631592 -11.27568359 35.76013184 -12.19042969 35.7331543 C-15.49300405 35.6478025 -18.79440275 35.58519348 -22.09765625 35.5378418 C-23.52557901 35.51273653 -24.95337375 35.47864413 -26.38085938 35.43530273 C-28.43651918 35.37446322 -30.49047753 35.34625449 -32.546875 35.32421875 C-33.78276367 35.29803467 -35.01865234 35.27185059 -36.29199219 35.24487305 C-39.65573434 35.53662129 -39.65573434 35.53662129 -41.93457031 38.11645508 C-43.80337126 40.81538337 -43.80337126 40.81538337 -43.5 44.4375 C-42.37119519 48.24721625 -41.88689391 48.93498272 -38.5 50.8125 C-35.30669528 51.22547153 -35.30669528 51.22547153 -31.765625 51.10546875 C-29.82236328 51.0909668 -29.82236328 51.0909668 -27.83984375 51.07617188 C-26.47655646 51.05110783 -25.11327521 51.02571302 -23.75 51 C-22.37110816 50.98494518 -20.99220065 50.97125817 -19.61328125 50.95898438 C-16.24179085 50.92361909 -12.87109346 50.87425904 -9.5 50.8125 C-9.52094727 51.66481201 -9.54189453 52.51712402 -9.56347656 53.39526367 C-9.63185244 56.57279433 -9.68189738 59.74994871 -9.71972656 62.92797852 C-9.7397799 64.30050023 -9.76703028 65.67293717 -9.80175781 67.04516602 C-9.85054552 69.02322044 -9.87088876 71.00191119 -9.890625 72.98046875 C-9.91157227 74.16922607 -9.93251953 75.3579834 -9.95410156 76.58276367 C-9.40702235 80.47379105 -8.3078619 82.10509772 -5.5 84.8125 C-2.04295504 85.64595815 -2.04295504 85.64595815 1.5 84.8125 C4.80447467 82.22004418 6.33128984 80.77244269 7.06762695 76.58276367 C7.02835083 74.79962769 7.02835083 74.79962769 6.98828125 72.98046875 C6.97216797 71.68818359 6.95605469 70.39589844 6.93945312 69.06445312 C6.89768274 67.70961843 6.85535809 66.35480072 6.8125 65 C6.78740069 63.62569134 6.76459036 62.25133884 6.74414062 60.87695312 C6.68526461 57.52102024 6.6030642 54.1673191 6.5 50.8125 C7.35754883 50.83344727 8.21509766 50.85439453 9.09863281 50.87597656 C12.28918472 50.94426527 15.47936346 50.99435513 18.67041016 51.03222656 C20.0497668 51.05230642 21.42903869 51.07957666 22.80810547 51.11425781 C24.79356979 51.16292817 26.77966254 51.18336418 28.765625 51.203125 C29.95961914 51.22407227 31.15361328 51.24501953 32.38378906 51.26660156 C35.57522122 51.05693347 35.57522122 51.05693347 37.88964844 49.00683594 C40.2357013 45.81000102 40.05186768 43.67557374 39.5 39.8125 C37.95623796 37.48920029 37.95623796 37.48920029 35.5 35.8125 C32.3117455 35.26222236 32.3117455 35.26222236 28.765625 35.421875 C26.82236328 35.44121094 26.82236328 35.44121094 24.83984375 35.4609375 C23.47655176 35.49435634 22.11327051 35.52821609 20.75 35.5625 C19.37111936 35.58257293 17.99221088 35.60082233 16.61328125 35.6171875 C13.24148256 35.66434552 9.87109313 35.73015462 6.5 35.8125 C6.52094727 34.96018799 6.54189453 34.10787598 6.56347656 33.22973633 C6.63185244 30.05220567 6.68189738 26.87505129 6.71972656 23.69702148 C6.7397799 22.32449977 6.76703028 20.95206283 6.80175781 19.57983398 C6.85054552 17.60177956 6.87088876 15.62308881 6.890625 13.64453125 C6.91157227 12.45577393 6.93251953 11.2670166 6.95410156 10.04223633 C6.4110014 6.17950943 5.22300736 4.55069847 2.5 1.8125 C0.53107469 1.07195239 0.53107469 1.07195239 -1.5 1.25 C-2.16 1.24871094 -2.82 1.24742187 -3.5 1.24609375 C-6.45265362 2.08229448 -7.60117824 3.41407822 -9.5 5.8125 Z " fill="#10100F" transform="translate(608.5,631.1875)"/>
<path d="M0 0 C1.63787476 0.0002417 1.63787476 0.0002417 3.30883789 0.00048828 C23.72492193 0.28742193 23.72492193 0.28742193 29.8125 6.375 C26.47080319 5.87374548 23.27219731 5.23328126 20 4.375 C-0.71583826 -0.87249022 -23.6092977 3.35078778 -42.1875 13.4375 C-61.99101845 25.65275437 -75.58557006 43.39919285 -81.4765625 66.08203125 C-82.51098041 70.87331859 -83.03270702 75.47967196 -83.1875 80.375 C-83.2390625 81.61121094 -83.290625 82.84742188 -83.34375 84.12109375 C-83.76181224 98.27327469 -80.68065108 110.20670697 -74.7109375 122.9765625 C-73.57391935 125.5129876 -72.69589807 127.66812381 -72.1875 130.375 C-81.31588789 122.38090883 -85.27559259 104.46654478 -86.44628906 92.79492188 C-87.75788533 70.9019879 -81.99700707 48.44225154 -67.28051758 31.72387695 C-64.97859707 29.20763833 -62.59765272 26.78850015 -60.1875 24.375 C-59.383125 23.55902344 -58.57875 22.74304688 -57.75 21.90234375 C-42.13307528 6.92756231 -21.38461657 -0.0295708 0 0 Z " fill="#1A1A1A" transform="translate(490.1875,301.625)"/>
<path d="M0 0 C0.33 0 0.66 0 1 0 C0.8964772 1.25401863 0.8964772 1.25401863 0.79086304 2.53337097 C-0.2275825 15.65004352 -0.29658642 28.75638219 -0.35009766 41.90551758 C-0.36351247 44.85276794 -0.39154892 47.79933838 -0.43212891 50.74633789 C-0.48166336 54.34818907 -0.50623792 57.94941863 -0.51332474 61.55159569 C-0.52318474 63.56175102 -0.55733998 65.57174087 -0.59213257 67.58161926 C-0.5721342 76.25069944 0.66624554 82.45280815 6.75576782 88.84223938 C12.3734673 94.15993789 18.31202034 96.36893724 25.9919281 96.39872742 C26.99320278 96.40869766 26.99320278 96.40869766 28.01470524 96.41886932 C30.23188621 96.43739192 32.44852242 96.43490145 34.66577148 96.43237305 C36.2628505 96.44139681 37.85992259 96.45172554 39.45698547 96.46325684 C43.7787656 96.49078087 48.10041414 96.50010509 52.42227054 96.50611091 C56.94400648 96.51550655 61.4656446 96.54171091 65.98731995 96.56611633 C74.54356508 96.60975227 83.0997912 96.63831708 91.65611368 96.66143972 C101.39979877 96.68850696 111.1433853 96.73241754 120.88699996 96.77772844 C140.9246136 96.87053309 160.96225673 96.94223298 181 97 C180.67 95.35 180.34 93.7 180 92 C180.66 92.33 181.32 92.66 182 93 C182 94.65 182 96.3 182 98 C160.7725352 98.09352111 139.54510447 98.16401734 118.31747532 98.20724869 C108.46068489 98.22785702 98.60402262 98.25594455 88.74731445 98.30175781 C80.15427578 98.34167853 71.56132993 98.36744538 62.9682011 98.37635398 C58.41991775 98.38155987 53.87189994 98.39375947 49.32370186 98.42292023 C45.03830478 98.45017212 40.75328136 98.45842535 36.46780586 98.45243073 C34.89932217 98.45352661 33.33082532 98.46142225 31.76241684 98.4768219 C20.16695388 98.58504071 11.50414806 97.30637718 3 89 C-3.27693347 80.9794739 -3.30854098 73.31586742 -3.30078125 63.515625 C-3.30506638 62.30541687 -3.3093515 61.09520874 -3.31376648 59.84832764 C-3.31950018 57.28642398 -3.32001713 54.72450405 -3.31567383 52.16259766 C-3.31254439 48.30471734 -3.3358797 44.44762767 -3.36132812 40.58984375 C-3.39514438 26.76736441 -2.796279 13.5550233 0 0 Z " fill="#202121" transform="translate(336,621)"/>
<path d="M0 0 C16.35861834 2.61737894 31.13821097 16.78546693 40.625 29.6875 C47.56210035 40.1011982 52.11907209 50.87222285 55 63 C55.19335938 63.75410156 55.38671875 64.50820313 55.5859375 65.28515625 C59.11331668 88.4127839 53.23517497 111.16662049 39.49609375 129.91015625 C27.91158869 144.25028693 11.53093282 158.08182977 -7.09765625 161.58203125 C-9.41257022 161.82622049 -11.67356474 161.9892791 -14 162 C-10.9630501 160.34982059 -7.82410593 159.1935711 -4.56860352 158.04711914 C17.88598577 150.07286455 35.50356906 135.73234518 46.16430664 114.35327148 C50.68380017 104.84705389 53.5232612 94.54784593 54 84 C54.07734375 82.92685547 54.07734375 82.92685547 54.15625 81.83203125 C55.05119535 59.57026569 45.60071429 38.37385607 31 22 C28.4701547 19.4701547 25.81267779 17.20888292 23 15 C22.16597656 14.34128906 21.33195313 13.68257813 20.47265625 13.00390625 C14.02571359 8.11088951 7.34322323 4.38326515 0 1 C0 0.67 0 0.34 0 0 Z " fill="#171719" transform="translate(520,308)"/>
<path d="M0 0 C16.85552706 -1.75375426 32.01871102 6.30028414 44.8125 16.5625 C48.40055332 19.53576132 51.82985104 22.57942635 55 26 C55 26.66 55 27.32 55 28 C55.66 28 56.32 28 57 28 C72.38927227 44.69824485 76.82890128 67.74815988 76.13183594 89.66699219 C75.51537998 100.57597952 71.75014353 111.2218494 67 121 C66.01 121.495 66.01 121.495 65 122 C65.4125 120.7625 65.825 119.525 66.25 118.25 C66.52070312 117.43273437 66.79140625 116.61546875 67.0703125 115.7734375 C67.71943882 113.83696823 68.38198745 111.90496932 69.0546875 109.9765625 C69.40789062 108.95304688 69.76109375 107.92953125 70.125 106.875 C70.45757813 105.92367187 70.79015625 104.97234375 71.1328125 103.9921875 C77.04100843 83.60625018 73.71840298 60.57157723 63.76293945 42.20849609 C52.65171013 22.84111418 35.66330711 10.03284264 14.203125 3.8125 C9.5076581 2.62145474 4.78748674 1.7291563 0 1 C0 0.67 0 0.34 0 0 Z " fill="#1C1D1D" transform="translate(615,592)"/>
<path d="M0 0 C1.16015625 0.08314453 1.16015625 0.08314453 2.34375 0.16796875 C5.31120162 1.05497875 5.95583139 2.14024633 7.5 4.8125 C7.84057617 8.02050781 7.84057617 8.02050781 7.79296875 11.765625 C7.78872391 12.42584656 7.78447906 13.08606812 7.78010559 13.76629639 C7.76337435 15.86545391 7.72573551 17.96363496 7.6875 20.0625 C7.67244584 21.48956942 7.65875871 22.91665396 7.64648438 24.34375 C7.61349001 27.83364817 7.56174743 31.3229787 7.5 34.8125 C8.16 34.4825 8.82 34.1525 9.5 33.8125 C13.43233643 33.56951109 17.3734991 33.62729679 21.3125 33.625 C22.9531543 33.60663086 22.9531543 33.60663086 24.62695312 33.58789062 C26.2134668 33.58499023 26.2134668 33.58499023 27.83203125 33.58203125 C28.79858643 33.57792236 29.7651416 33.57381348 30.76098633 33.56958008 C34.58182605 33.90844589 37.44521955 34.86683477 40.3125 37.4375 C42.00173564 40.81597129 42.68423718 44.21964483 41.5 47.8125 C39.42268591 50.54114263 38.56543791 51.50225909 35.5 52.8125 C30.5173079 53.282551 25.60608718 52.96189958 20.625 52.625 C19.25533538 52.55162511 17.88554065 52.48063787 16.515625 52.41210938 C13.17505477 52.23567081 9.83776377 52.03503875 6.5 51.8125 C6.5 51.4825 6.5 51.1525 6.5 50.8125 C7.36278564 50.79791748 8.22557129 50.78333496 9.11450195 50.76831055 C12.31849647 50.70722246 15.52184625 50.63306451 18.7253418 50.55004883 C20.11129377 50.51681451 21.49738061 50.48877774 22.88354492 50.46606445 C24.87706843 50.43249383 26.87021741 50.37862 28.86328125 50.32421875 C30.06251221 50.29803467 31.26174316 50.27185059 32.49731445 50.24487305 C35.46452941 50.04617056 35.46452941 50.04617056 37.39135742 48.49926758 C39.26918565 45.64220631 38.853501 43.1118427 38.5 39.8125 C37.45691299 37.99690654 37.45691299 37.99690654 35.5 36.8125 C32.4031714 36.30481957 32.4031714 36.30481957 28.86328125 36.30078125 C27.56455078 36.26533203 26.26582031 36.22988281 24.92773438 36.19335938 C23.55599483 36.1702595 22.1842499 36.1474771 20.8125 36.125 C19.42900393 36.09182458 18.04553871 36.05733469 16.66210938 36.02148438 C13.27482117 35.93886759 9.88779643 35.86975942 6.5 35.8125 C6.48541748 34.95495117 6.47083496 34.09740234 6.45581055 33.21386719 C6.39464522 30.02289587 6.32047238 26.83256413 6.23754883 23.64208984 C6.20435807 22.26297333 6.17630783 20.88372289 6.15356445 19.50439453 C6.11991358 17.51827694 6.06605271 15.53253441 6.01171875 13.546875 C5.98553467 12.35288086 5.95935059 11.15888672 5.93237305 9.92871094 C5.47099144 6.60342871 4.83580843 5.17917025 2.5 2.8125 C0.56255801 2.22164 0.56255801 2.22164 -1.5 2.375 C-2.180625 2.37628906 -2.86125 2.37757813 -3.5625 2.37890625 C-6.16624973 2.96160024 -6.90424791 3.66200385 -8.5 5.8125 C-9.008149 9.00727975 -9.008149 9.00727975 -9.01171875 12.66796875 C-9.02966995 13.32960526 -9.04762115 13.99124176 -9.06611633 14.67292786 C-9.12020898 16.78188747 -9.15410931 18.89062099 -9.1875 21 C-9.22067427 22.43167208 -9.25516405 23.86331433 -9.29101562 25.29492188 C-9.37840887 28.80081349 -9.43847679 32.30567716 -9.5 35.8125 C-18.74 35.8125 -27.98 35.8125 -37.5 35.8125 C-37.5 35.4825 -37.5 35.1525 -37.5 34.8125 C-28.59 34.8125 -19.68 34.8125 -10.5 34.8125 C-10.53480469 32.60949219 -10.56960938 30.40648437 -10.60546875 28.13671875 C-10.62886783 26.00204769 -10.6470823 23.86739093 -10.66479492 21.73266602 C-10.67987768 20.24952801 -10.70034689 18.76643456 -10.72631836 17.28344727 C-10.76272616 15.15109255 -10.77973073 13.01932765 -10.79296875 10.88671875 C-10.8086792 9.60369873 -10.82438965 8.32067871 -10.84057617 6.9987793 C-10.5 3.8125 -10.5 3.8125 -9.16918945 1.93286133 C-6.08008176 -0.14055028 -3.58667421 -0.31682289 0 0 Z " fill="#2F2F30" transform="translate(608.5,631.1875)"/>
<path d="M0 0 C3.67438432 3.778938 4.50466211 6.21592294 4.54589844 11.44262695 C4.56561707 12.72357742 4.58533569 14.00452789 4.60565186 15.32429504 C4.60731476 16.71229 4.60854576 18.10028554 4.609375 19.48828125 C4.62436359 20.91604991 4.64109218 22.34380128 4.65948486 23.77153015 C4.70309533 27.51812556 4.72314313 31.26448711 4.73822021 35.0112915 C4.75781433 38.83904818 4.79978164 42.66655314 4.83984375 46.49414062 C4.91507731 53.99602598 4.96540984 61.49780545 5 69 C5.97969757 68.9955336 6.95939514 68.9910672 7.96878052 68.98646545 C36.9893588 68.85959917 65.98657513 69.37527239 95 70 C95.5345256 71.24420647 96.05208611 72.49570936 96.5625 73.75 C96.99755859 74.79414062 96.99755859 74.79414062 97.44140625 75.859375 C98.07831803 78.30012784 97.80248831 79.6403655 97 82 C96.49632243 80.54293274 95.99717444 79.08429904 95.5 77.625 C95.2215625 76.81289063 94.943125 76.00078125 94.65625 75.1640625 C94 73 94 73 94 71 C63.97 71 33.94 71 3 71 C2.8125 39.3125 2.8125 39.3125 2.79223633 29.32543945 C2.76579257 26.71303283 2.73751595 24.10064384 2.70703125 21.48828125 C2.7093425 20.81298874 2.71165375 20.13769623 2.71403503 19.44194031 C2.71895913 17.4420924 2.68975217 15.44225094 2.65942383 13.44262695 C2.65276199 12.31677689 2.64610016 11.19092682 2.63923645 10.03096008 C1.7979003 6.04173779 0.13089159 4.52762985 -3 2 C-6 1.16666667 -6 1.16666667 -9 2 C-11.87640616 4.37500791 -11.87640616 4.37500791 -14 7 C-13.73495227 3.73107795 -13.40216549 2.36560499 -10.9375 0.125 C-7.14990839 -1.325567 -3.80037631 -1.57152738 0 0 Z " fill="#010101" transform="translate(418,631)"/>
<path d="M0 0 C1.05445313 0.09539063 2.10890625 0.19078125 3.1953125 0.2890625 C5.71439884 0.51807035 8.2324389 0.75489307 10.75 1 C10.75 1.33 10.75 1.66 10.75 2 C-23.9 2 -58.55 2 -94.25 2 C-94.25 1.67 -94.25 1.34 -94.25 1 C-87.38105127 0.12690002 -80.61944672 -0.20392878 -73.69921875 -0.31640625 C-72.05817924 -0.3475779 -72.05817924 -0.3475779 -70.38398743 -0.37937927 C-68.07365422 -0.42243878 -65.76328309 -0.46350432 -63.45288086 -0.50268555 C-59.98606541 -0.56167366 -56.51941482 -0.62695355 -53.05273438 -0.69335938 C-14.4493671 -1.41062423 -14.4493671 -1.41062423 0 0 Z " fill="#000000" transform="translate(294.25,1022)"/>
<path d="M0 0 C7.09476446 0.45865144 12.65163046 2.11800394 19.125 5 C20.04152344 5.40299316 20.95804688 5.80598633 21.90234375 6.22119141 C36.92814028 12.97491918 59.3016291 24.6032582 67 40 C70.27555608 40.47001033 70.27555608 40.47001033 74.0625 40.625 C75.35285156 40.69976563 76.64320313 40.77453125 77.97265625 40.8515625 C78.97167969 40.90054688 79.97070312 40.94953125 81 41 C81 41.33 81 41.66 81 42 C78.43758606 42.30411728 75.88077438 42.56886039 73.3125 42.8125 C72.59126953 42.90208984 71.87003906 42.99167969 71.12695312 43.08398438 C67.19260633 43.4253204 65.4091227 43.32413302 62.2734375 40.83984375 C61.52320313 39.90269531 60.77296875 38.96554687 60 38 C59.21238281 37.12859375 58.42476562 36.2571875 57.61328125 35.359375 C56.0708424 33.61005556 54.52918399 31.86004769 52.98828125 30.109375 C51.17649554 27.94486736 51.17649554 27.94486736 49 27 C49 26.34 49 25.68 49 25 C48.01 25 47.02 25 46 25 C44.83459977 23.83459977 43.67318156 22.66496802 42.53125 21.4765625 C31.65758302 10.99124077 14.38957185 4.69427069 0 1 C0 0.67 0 0.34 0 0 Z " fill="#161717" transform="translate(534,534)"/>
<path d="M0 0 C0.495 1.485 0.495 1.485 1 3 C-9.21487669 22.43234117 -28.70300049 34.78844912 -48.94067383 41.40258789 C-56.38005963 43.56075944 -63.58428674 44.35852267 -71.3125 44.3125 C-72.2202417 44.31121094 -73.1279834 44.30992187 -74.06323242 44.30859375 C-81.37811241 44.20466152 -87.99132099 43.18452333 -95 41 C-91.60381562 39.86793854 -89.46126968 40.30198667 -86 41 C-62.49105022 42.70919108 -39.27665692 39.65864855 -20.51953125 24.25390625 C-17.52333577 21.64222253 -14.74776338 18.87130623 -12 16 C-11.30261719 15.27554688 -10.60523438 14.55109375 -9.88671875 13.8046875 C-5.99264003 9.55205336 -2.8790329 4.9885547 0 0 Z " fill="#1F2020" transform="translate(679,714)"/>
<path d="M0 0 C3.30553882 1.06943903 5.57305076 2.39074569 8.125 4.6875 C9.07375 5.450625 10.0225 6.21375 11 7 C11.99 6.67 12.98 6.34 14 6 C14.33 7.65 14.66 9.3 15 11 C15.66 11 16.32 11 17 11 C17 11.66 17 12.32 17 13 C17.66 13 18.32 13 19 13 C20.66666667 14.66666667 22.33333333 16.33333333 24 18 C25.0725 18.66 26.145 19.32 27.25 20 C30 22 30 22 30.44921875 24.3046875 C31.12762919 27.62456838 32.5270612 29.43575358 34.5625 32.125 C38 36.67605634 38 36.67605634 38 40 C33.57521419 40.80450651 29.2487646 41.14080668 24.75 41.25 C23.22632813 41.28867187 23.22632813 41.28867187 21.671875 41.328125 C19 41 19 41 16 38 C22.27 38 28.54 38 35 38 C30.59621509 30.99911116 25.68539609 24.99757258 20 19 C19.27683594 18.22398437 18.55367187 17.44796875 17.80859375 16.6484375 C12.97676354 11.61780211 7.86056976 7.54730046 2.08984375 3.62890625 C1.40019531 3.09136719 0.71054687 2.55382812 0 2 C0 1.34 0 0.68 0 0 Z " fill="#0B0C0C" transform="translate(586,538)"/>
<path d="M0 0 C0 0.33 0 0.66 0 1 C-0.98842896 1.029729 -0.98842896 1.029729 -1.99682617 1.06005859 C-33.23074428 2.04728276 -60.34701151 7.21604875 -84 29 C-84.66 28.34 -85.32 27.68 -86 27 C-63.23863631 3.58831163 -31.37361221 -2.77377217 0 0 Z " fill="#121213" transform="translate(505,285)"/>
<path d="M0 0 C3.28905885 3.18296018 6.34607942 6.50472335 9.375 9.9375 C23.40318468 25.56295323 42.78471712 36.47223277 64 38 C68.16790763 38.10973749 72.33104509 38.09491412 76.5 38.0625 C77.60859375 38.05798828 78.7171875 38.05347656 79.859375 38.04882812 C82.57297399 38.03713158 85.28645761 38.02074086 88 38 C88 38.33 88 38.66 88 39 C66.80824733 43.37962888 44.89170375 39.05140867 26.51953125 27.96484375 C16.30257997 21.23898932 6.40687709 12.52558378 0 2 C0 1.34 0 0.68 0 0 Z " fill="#161716" transform="translate(418,432)"/>
<path d="M0 0 C0.33 0 0.66 0 1 0 C1.01981934 0.60884033 1.03963867 1.21768066 1.06005859 1.8449707 C1.9896248 28.98984476 6.70641047 52.88645002 25 74 C25.61101562 74.7321875 26.22203125 75.464375 26.8515625 76.21875 C30.28500064 80.27232454 33.81198482 83.73130523 38 87 C32.94972834 87 29.70423339 82.68270299 26.203125 79.32421875 C11.09504492 64.10305424 0.02861448 41.66163219 -0.1953125 20.1171875 C-0.18219217 17.70304688 -0.15859877 15.28894246 -0.125 12.875 C-0.11597656 11.63234375 -0.10695313 10.3896875 -0.09765625 9.109375 C-0.07429729 6.07270996 -0.04154283 3.03646147 0 0 Z " fill="#252726" transform="translate(388,378)"/>
<path d="M0 0 C0.33 0 0.66 0 1 0 C1 1.65 1 3.3 1 5 C0.20827393 5.00410889 -0.58345215 5.00821777 -1.39916992 5.01245117 C-4.99603252 5.04540154 -8.59120475 5.11605043 -12.1875 5.1875 C-14.05631836 5.19620117 -14.05631836 5.19620117 -15.96289062 5.20507812 C-23.21298616 5.08372953 -23.21298616 5.08372953 -29.359375 8.32421875 C-31.30683175 10.99209636 -31.30683175 10.99209636 -31.0625 14.625 C-29.87611822 18.39350682 -29.32992897 19.08723507 -26 21 C-23.20236557 21.50111517 -23.20236557 21.50111517 -20.140625 21.51171875 C-18.46806641 21.56489258 -18.46806641 21.56489258 -16.76171875 21.61914062 C-15.60285156 21.64169922 -14.44398438 21.66425781 -13.25 21.6875 C-12.07566406 21.72166016 -10.90132812 21.75582031 -9.69140625 21.79101562 C-6.79436611 21.87345173 -3.89762702 21.94261811 -1 22 C-1 22.33 -1 22.66 -1 23 C-11.20691111 25.34256976 -20.20962488 26.32294953 -29.9375 21.5625 C-32 20 -32 20 -33 17 C-33.69195666 9.84978113 -33.69195666 9.84978113 -30.88061523 6.3972168 C-27.38799807 3.49069863 -25.86438006 3.40948904 -21.38671875 3.51171875 C-20.13955078 3.52783203 -18.89238281 3.54394531 -17.60742188 3.56054688 C-16.31384766 3.60244141 -15.02027344 3.64433594 -13.6875 3.6875 C-12.37458984 3.71005859 -11.06167969 3.73261719 -9.70898438 3.75585938 C-6.4714987 3.81472275 -3.23633 3.89691196 0 4 C0 2.68 0 1.36 0 0 Z " fill="#000000" transform="translate(597,661)"/>
<path d="M0 0 C0.74967041 0.18868652 1.49934082 0.37737305 2.27172852 0.57177734 C18.55869091 4.80723806 35.04464193 10.80910124 48.3125 21.5 C47.9825 22.16 47.6525 22.82 47.3125 23.5 C45.74628906 22.57380859 45.74628906 22.57380859 44.1484375 21.62890625 C26.41317244 11.34077532 8.59733914 3.84957505 -11.6875 0.5 C-7.78033982 -2.3123518 -4.32806037 -1.12403153 0 0 Z " fill="#181818" transform="translate(537.6875,515.5)"/>
<path d="M0 0 C1.08667969 1.08861328 1.08667969 1.08861328 2.1953125 2.19921875 C3.12085938 3.12347656 4.04640625 4.04773438 5 5 C5.78117188 5.79019531 6.56234375 6.58039062 7.3671875 7.39453125 C23.52315133 22.97169887 41.26540737 26.17446603 63 28 C63 28.33 63 28.66 63 29 C41.70689107 29.60137442 24.05232939 26.05597791 8 11 C0 2.84313725 0 2.84313725 0 0 Z " fill="#1D1D1D" transform="translate(553,712)"/>
<path d="M0 0 C0.66 0.33 1.32 0.66 2 1 C1.39671875 1.89460937 0.7934375 2.78921875 0.171875 3.7109375 C-10.34319023 19.51974878 -16.13680496 36.33321038 -12.2890625 55.55078125 C-11.75397163 57.56105382 -11.18224157 59.56228904 -10.55859375 61.546875 C-9.96852225 64.13823797 -10.12609349 65.52296697 -11 68 C-11.48108275 66.58398286 -11.95978141 65.16715563 -12.4375 63.75 C-12.70433594 62.96109375 -12.97117187 62.1721875 -13.24609375 61.359375 C-17.38136636 48.41790009 -17.17347448 30.14896581 -11 18 C-10.44441406 16.87207031 -9.88882813 15.74414062 -9.31640625 14.58203125 C-6.59592197 9.3107273 -3.82296918 4.55235145 0 0 Z " fill="#191A1A" transform="translate(556,631)"/>
<path d="M0 0 C12.53141056 1.27384097 22.4297437 8.16099002 31 17 C31.71929688 17.721875 32.43859375 18.44375 33.1796875 19.1875 C37.82727965 24.09816341 45 31.87946109 45 39 C44.34 39 43.68 39 43 39 C42.61070312 38.18917969 42.22140625 37.37835937 41.8203125 36.54296875 C37.31129037 27.61842956 32.01864972 18.60448382 23.1953125 13.3203125 C22.47085938 12.88460937 21.74640625 12.44890625 21 12 C21 11.34 21 10.68 21 10 C19.700625 9.62875 19.700625 9.62875 18.375 9.25 C15 8 15 8 12.1875 6.0625 C8.30290622 3.54893932 4.41253081 2.29434237 0 1 C0 0.67 0 0.34 0 0 Z " fill="#0B0C0C" transform="translate(624,611)"/>
<path d="M0 0 C16.08480195 2.57356831 30.55141044 16.35569057 40.125 28.875 C41.053125 30.421875 41.053125 30.421875 42 32 C41.67 32.99 41.34 33.98 41 35 C40.48050781 34.33613281 39.96101562 33.67226563 39.42578125 32.98828125 C35.81481193 28.41616668 32.27759213 23.97204984 28 20 C27.28199219 19.31164062 26.56398438 18.62328125 25.82421875 17.9140625 C17.99558846 10.58461393 9.6122794 5.62813453 0 1 C0 0.67 0 0.34 0 0 Z " fill="#121515" transform="translate(520,308)"/>
<path d="M0 0 C0.66 0 1.32 0 2 0 C0.99586549 2.55179136 -0.03529579 5.07947557 -1.1484375 7.5859375 C-4.24905185 14.63637904 -6.32766096 21.57617605 -8.10546875 29.04296875 C-8.40066406 30.01878906 -8.69585937 30.99460937 -9 32 C-9.99 32.495 -9.99 32.495 -11 33 C-10.96869567 26.48869915 -9.45885536 20.8488966 -7.1875 14.8125 C-6.93919434 14.14798828 -6.69088867 13.48347656 -6.43505859 12.79882812 C-4.66826476 8.26881822 -2.49495719 4.17269413 0 0 Z " fill="#1B1D1E" transform="translate(416,343)"/>
<path d="M0 0 C2.54030191 2.03224153 4.64036214 3.71668793 5.54296875 6.9375 C5.82898722 11.01906092 5.47325024 12.38153804 2.88671875 15.76171875 C-2.366016 19.83928392 -9.6347891 18.23456136 -15.875 17.8125 C-17.24466462 17.73912511 -18.61445935 17.66813787 -19.984375 17.59960938 C-23.32494523 17.42317081 -26.66223623 17.22253875 -30 17 C-30 16.67 -30 16.34 -30 16 C-29.13721436 15.98541748 -28.27442871 15.97083496 -27.38549805 15.95581055 C-24.18150353 15.89472246 -20.97815375 15.82056451 -17.7746582 15.73754883 C-16.38870623 15.70431451 -15.00261939 15.67627774 -13.61645508 15.65356445 C-11.62293157 15.61999383 -9.62978259 15.56612 -7.63671875 15.51171875 C-6.43748779 15.48553467 -5.23825684 15.45935059 -4.00268555 15.43237305 C-1.033682 15.23424108 -1.033682 15.23424108 0.89526367 13.67895508 C2.75662474 10.85009761 2.28308098 8.28373933 2 5 C1.1025173 2.16621868 1.1025173 2.16621868 0 0 Z " fill="#232323" transform="translate(645,666)"/>
<path d="M0 0 C0.66 0.33 1.32 0.66 2 1 C2 1.99 2 2.98 2 4 C-2.42478581 4.80450651 -6.7512354 5.14080668 -11.25 5.25 C-12.77367187 5.28867187 -12.77367187 5.28867187 -14.328125 5.328125 C-17 5 -17 5 -20 2 C-13.73 2 -7.46 2 -1 2 C-0.67 1.34 -0.34 0.68 0 0 Z " fill="#020202" transform="translate(622,574)"/>
<path d="M0 0 C0 0.99 0 1.98 0 3 C-2.125 5.09375 -2.125 5.09375 -5 7.5 C-10.00673142 11.80538362 -13.7645528 16.42621024 -17.44140625 21.9453125 C-18.21291016 22.96238281 -18.21291016 22.96238281 -19 24 C-19.66 24 -20.32 24 -21 24 C-19.56606341 19.50040587 -17.0672406 16.493897 -13.875 13.125 C-13.38797607 12.60196289 -12.90095215 12.07892578 -12.39916992 11.54003906 C-8.50531041 7.41059434 -4.40445036 3.58413726 0 0 Z " fill="#06090A" transform="translate(438,319)"/>
<path d="M0 0 C0.33 0 0.66 0 1 0 C0.85636473 1.37523135 0.70996483 2.75017402 0.5625 4.125 C0.48128906 4.89070312 0.40007812 5.65640625 0.31640625 6.4453125 C0.09524156 8.2310126 -0.18162631 10.01029634 -0.5 11.78125 C-0.98456563 14.90064122 -1.20264218 17.90179757 -1.31640625 21.0546875 C-1.37924805 22.71757813 -1.37924805 22.71757813 -1.44335938 24.4140625 C-1.48267578 25.55617188 -1.52199219 26.69828125 -1.5625 27.875 C-1.60568359 29.0403125 -1.64886719 30.205625 -1.69335938 31.40625 C-1.79901629 34.27072625 -1.90111799 37.13528321 -2 40 C-2.33 40 -2.66 40 -3 40 C-3.04992909 35.89237237 -3.08596646 31.78486552 -3.10986328 27.67700195 C-3.1198393 26.28341591 -3.13342501 24.88985034 -3.15087891 23.49633789 C-3.24530414 15.75624611 -3.19848793 8.48300153 -1 1 C-0.67 0.67 -0.34 0.34 0 0 Z " fill="#0A0A0B" transform="translate(354,625)"/>
<path d="M0 0 C0.66 0 1.32 0 2 0 C3.078125 1.57421875 3.078125 1.57421875 4.25 3.6875 C9.21626731 11.8258629 15.16421324 14.18575475 24 17 C24 17.33 24 17.66 24 18 C15.59311785 17.27526878 10.27400724 14.86483285 4 9 C0 3.73684211 0 3.73684211 0 0 Z " fill="#131515" transform="translate(335,701)"/>
<path d="M0 0 C1.4386494 0.06032073 2.87611902 0.14920133 4.3125 0.25 C5.51326172 0.31960938 5.51326172 0.31960938 6.73828125 0.390625 C9 1 9 1 10.62304688 2.60351562 C12.48762573 5.84867626 12.34037379 8.22392833 12.29296875 11.953125 C12.28872391 12.61334656 12.28447906 13.27356812 12.28010559 13.95379639 C12.26337435 16.05295391 12.22573551 18.15113496 12.1875 20.25 C12.17244584 21.67706942 12.15875871 23.10415396 12.14648438 24.53125 C12.11349001 28.02114817 12.06174743 31.5104787 12 35 C11.67 35 11.34 35 11 35 C10.99589111 34.17798096 10.99178223 33.35596191 10.98754883 32.5090332 C10.95460757 28.77612958 10.88395896 25.04485666 10.8125 21.3125 C10.80669922 20.01892578 10.80089844 18.72535156 10.79492188 17.39257812 C10.76591797 16.14541016 10.73691406 14.89824219 10.70703125 13.61328125 C10.6913208 12.46641846 10.67561035 11.31955566 10.65942383 10.13793945 C9.80746616 6.08380696 8.17445699 4.5783812 5 2 C2.32209104 1.12761142 2.32209104 1.12761142 0 1 C0 0.67 0 0.34 0 0 Z " fill="#0C0B0C" transform="translate(604,631)"/>
<path d="M0 0 C0.52207031 0.23460937 1.04414062 0.46921875 1.58203125 0.7109375 C0.83179688 1.05125 0.0815625 1.3915625 -0.69140625 1.7421875 C-9.35943835 5.84694829 -16.72896996 10.80823267 -23.41796875 17.7109375 C-24.07796875 17.3809375 -24.73796875 17.0509375 -25.41796875 16.7109375 C-20.55337113 11.15139736 -15.47512853 6.776177 -9.10546875 3.0859375 C-8.50718262 2.73144531 -7.90889648 2.37695312 -7.29248047 2.01171875 C-4.69743254 0.57091664 -2.99932446 -0.35856221 0 0 Z " fill="#111212" transform="translate(582.41796875,613.2890625)"/>
<path d="M0 0 C1.81591797 0.10839844 1.81591797 0.10839844 3.9921875 0.609375 C4.77980469 0.78726562 5.56742187 0.96515625 6.37890625 1.1484375 C7.20261719 1.34695313 8.02632812 1.54546875 8.875 1.75 C10.09896484 2.02457031 10.09896484 2.02457031 11.34765625 2.3046875 C15.18254497 3.1930304 18.51240126 4.13195922 22 6 C22 6.66 22 7.32 22 8 C21.35675781 7.81824219 20.71351563 7.63648438 20.05078125 7.44921875 C12.74600012 5.41721829 5.39794893 3.65836375 -2 2 C-1.34 1.34 -0.68 0.68 0 0 Z " fill="#1E1F1F" transform="translate(505,285)"/>
<path d="M0 0 C2.5 2.4375 2.5 2.4375 4 5 C4 5.66 4 6.32 4 7 C3.34 7 2.68 7 2 7 C1.2575 6.175 0.515 5.35 -0.25 4.5 C-2.77151403 1.78277541 -2.77151403 1.78277541 -6 1.375 C-9.92660732 2.19304319 -11.44578533 3.99504157 -14 7 C-13.73495227 3.73107795 -13.40216549 2.36560499 -10.9375 0.125 C-7.02648665 -1.3728349 -3.96462502 -1.38223878 0 0 Z " fill="#070908" transform="translate(418,631)"/>
<path d="M0 0 C0.66 0.33 1.32 0.66 2 1 C-3.61 6.61 -9.22 12.22 -15 18 C-15 13.78193333 -13.14807199 12.61332709 -10.3125 9.5625 C-9.44238281 8.61503906 -8.57226562 7.66757812 -7.67578125 6.69140625 C-5.23784139 4.23923024 -2.74711696 2.0937486 0 0 Z " fill="#090A0C" transform="translate(382,546)"/>
<path d="M0 0 C1.7734375 0.17578125 1.7734375 0.17578125 4 1 C5.8515625 3.29296875 5.8515625 3.29296875 7.625 6.1875 C8.21539063 7.12980469 8.80578125 8.07210937 9.4140625 9.04296875 C10.98820914 11.97801557 12.04684328 14.8149466 13 18 C12.34 18 11.68 18 11 18 C10.54109375 17.11957031 10.0821875 16.23914063 9.609375 15.33203125 C8.99578125 14.17058594 8.3821875 13.00914062 7.75 11.8125 C7.14671875 10.66394531 6.5434375 9.51539063 5.921875 8.33203125 C4.16303339 5.28265749 2.27714105 2.67513694 0 0 Z " fill="#111313" transform="translate(656,632)"/>
<path d="M0 0 C3.58382994 2.30389068 5.17683243 4.67886257 7.125 8.4375 C7.62257813 9.38496094 8.12015625 10.33242188 8.6328125 11.30859375 C9.08398438 12.19675781 9.53515625 13.08492188 10 14 C10.40992188 14.71285156 10.81984375 15.42570312 11.2421875 16.16015625 C12 18 12 18 11 21 C9.53779721 18.43964079 8.08014847 15.8768644 6.625 13.3125 C6.2125 12.59126953 5.8 11.87003906 5.375 11.12695312 C3.31567728 7.48992349 1.41710948 3.94766212 0 0 Z " fill="#121314" transform="translate(572,326)"/>
<path d="M0 0 C0.33 0.99 0.66 1.98 1 3 C0.01 4.485 0.01 4.485 -1 6 C-0.76957241 10.84122604 -0.76957241 10.84122604 1.5625 14.9375 C2.036875 15.288125 2.51125 15.63875 3 16 C1.68 16 0.36 16 -1 16 C-3.49615286 12.25577071 -3.61489576 8.34882801 -3 4 C-1.5 1.5 -1.5 1.5 0 0 Z " fill="#0A0A0A" transform="translate(567,666)"/>
<path d="M0 0 C1.58583248 0.76567866 3.16856494 1.53777965 4.75 2.3125 C6.07257812 2.95638672 6.07257812 2.95638672 7.421875 3.61328125 C9.81600215 4.90103146 11.87776958 6.30915754 14 8 C13.67 8.66 13.34 9.32 13 10 C10.82778513 8.716961 8.6624676 7.42427887 6.5 6.125 C5.87996094 5.76019531 5.25992188 5.39539063 4.62109375 5.01953125 C3.04632542 4.0677482 1.51870947 3.03889741 0 2 C0 1.34 0 0.68 0 0 Z " fill="#131313" transform="translate(572,529)"/>
<path d="M0 0 C12.66970387 -0.3690205 12.66970387 -0.3690205 18 2 C18 2.66 18 3.32 18 4 C16.93072266 3.80083984 16.93072266 3.80083984 15.83984375 3.59765625 C10.56989045 2.62594212 5.3119095 1.7082546 0 1 C0 0.67 0 0.34 0 0 Z " fill="#262625" transform="translate(615,592)"/>
<path d="M0 0 C5.79340887 0.89129367 10.1319512 4.83440898 14 9 C13.67 9.66 13.34 10.32 13 11 C11.39400651 9.73147606 9.79027425 8.460089 8.1875 7.1875 C7.29417969 6.47980469 6.40085937 5.77210938 5.48046875 5.04296875 C3.52923089 3.43588623 1.73725024 1.82959577 0 0 Z " fill="#171718" transform="translate(648,602)"/>
<path d="M0 0 C0 0.66 0 1.32 0 2 C-1.95224208 3.28406399 -3.96340762 4.47941678 -6 5.625 C-7.11375 6.25664062 -8.2275 6.88828125 -9.375 7.5390625 C-10.24125 8.02117187 -11.1075 8.50328125 -12 9 C-12 8.01 -12 7.02 -12 6 C-9.8828125 4.39453125 -9.8828125 4.39453125 -7.125 2.8125 C-6.22007812 2.28269531 -5.31515625 1.75289063 -4.3828125 1.20703125 C-2 0 -2 0 0 0 Z " fill="#0D0E0E" transform="translate(443,296)"/>
<path d="M0 0 C8.91 0 17.82 0 27 0 C27 0.33 27 0.66 27 1 C18.09 1 9.18 1 0 1 C0 0.67 0 0.34 0 0 Z " fill="#000000" transform="translate(137,1023)"/>
<path d="M0 0 C0.66 0 1.32 0 2 0 C0.25731793 3.96064107 -2.14674729 7.74436549 -5 11 C-5.66 11 -6.32 11 -7 11 C-5.51131293 6.39860359 -3.25370145 3.49772906 0 0 Z " fill="#111314" transform="translate(424,332)"/>
<path d="M0 0 C0 0.66 0 1.32 0 2 C-5.445 4.475 -5.445 4.475 -11 7 C-10 4 -10 4 -8.22265625 2.83203125 C-7.50980469 2.49558594 -6.79695313 2.15914062 -6.0625 1.8125 C-5.35222656 1.46832031 -4.64195312 1.12414062 -3.91015625 0.76953125 C-2 0 -2 0 0 0 Z " fill="#060606" transform="translate(418,524)"/>
<path d="M0 0 C0.59425781 0.20109375 1.18851562 0.4021875 1.80078125 0.609375 C0.34628724 1.6149511 -1.11294318 2.61367935 -2.57421875 3.609375 C-3.79238281 4.4446875 -3.79238281 4.4446875 -5.03515625 5.296875 C-7.19921875 6.609375 -7.19921875 6.609375 -9.19921875 6.609375 C-7.8496834 2.56076896 -4.56268351 -0.81042336 0 0 Z " fill="#0F1112" transform="translate(448.19921875,313.390625)"/>
<path d="M0 0 C0.66 0 1.32 0 2 0 C0.55172414 4.5862069 0.55172414 4.5862069 -1.75 6.3125 C-4.57109421 7.17450101 -7.06759551 7.13329111 -10 7 C-10 6.67 -10 6.34 -10 6 C-8.63875 5.62875 -8.63875 5.62875 -7.25 5.25 C-3.87227303 3.95087424 -2.42480947 2.59801015 0 0 Z " fill="#0C0C0C" transform="translate(614,711)"/>
<path d="M0 0 C0.66 0.33 1.32 0.66 2 1 C0.90081184 1.98475214 -0.2045602 2.96260473 -1.3125 3.9375 C-1.92738281 4.48277344 -2.54226563 5.02804687 -3.17578125 5.58984375 C-5 7 -5 7 -8 8 C-6.88333826 4.65001479 -6.25305075 4.20659778 -3.4375 2.3125 C-2.79683594 1.87550781 -2.15617188 1.43851563 -1.49609375 0.98828125 C-1.00238281 0.66214844 -0.50867188 0.33601562 0 0 Z " fill="#0C0F10" transform="translate(660,737)"/>
<path d="M0 0 C0.66 0 1.32 0 2 0 C1.88637738 1.4800841 1.75877092 2.95910074 1.625 4.4375 C1.52058594 5.67306641 1.52058594 5.67306641 1.4140625 6.93359375 C1.27742188 7.61550781 1.14078125 8.29742187 1 9 C0.01 9.495 0.01 9.495 -1 10 C-0.67 6.7 -0.34 3.4 0 0 Z " fill="#242626" transform="translate(406,366)"/>
<path d="M0 0 C1 3 1 3 0.22265625 4.82421875 C-0.8515625 6.54947917 -1.92578125 8.27473958 -3 10 C-3.33 10 -3.66 10 -4 10 C-4.41176754 6.39703406 -4.1535853 5.21597933 -2 2.1875 C-1.34 1.465625 -0.68 0.74375 0 0 Z " fill="#121416" transform="translate(404,330)"/>
<path d="M0 0 C1.70884005 1.62339805 3.37446717 3.29319053 5 5 C5 5.66 5 6.32 5 7 C4.34 7 3.68 7 3 7 C1.2856382 5.04072937 -0.38405168 3.04119788 -2 1 C-1.34 0.67 -0.68 0.34 0 0 Z " fill="#141414" transform="translate(417,631)"/>
<path d="M0 0 C-5.625 3 -5.625 3 -9 3 C-9 2.34 -9 1.68 -9 1 C-3.375 -1.125 -3.375 -1.125 0 0 Z " fill="#161717" transform="translate(467,288)"/>
<path d="M0 0 C0.66 0 1.32 0 2 0 C2 0.66 2 1.32 2 2 C1.34 2 0.68 2 0 2 C0 1.34 0 0.68 0 0 Z " fill="#000000" transform="translate(616,562)"/>
<path d="M0 0 C0.66 0 1.32 0 2 0 C1.67 0.66 1.34 1.32 1 2 C0.67 1.34 0.34 0.68 0 0 Z " fill="#000000" transform="translate(668,614)"/>
<path d="M0 0 C0.66 0 1.32 0 2 0 C1.67 0.66 1.34 1.32 1 2 C0.67 1.34 0.34 0.68 0 0 Z " fill="#000000" transform="translate(666,612)"/>
<path d="M0 0 C3 1 3 1 3 1 Z " fill="#000000" transform="translate(607,586)"/>
<path d="M0 0 C2 1 2 1 2 1 Z " fill="#000000" transform="translate(670,616)"/>
<path d="" fill="#000000" transform="translate(0,0)"/>
<path d="" fill="#000000" transform="translate(0,0)"/>
<path d="" fill="#000000" transform="translate(0,0)"/>
<path d="" fill="#000000" transform="translate(0,0)"/>
<path d="" fill="#000000" transform="translate(0,0)"/>
</svg>
